<svg viewBox="0 0 1000 600" xmlns="http://www.w3.org/2000/svg">
  <!-- Styles -->
  <style>
    .component { fill: #f0f8ff; stroke: #3498db; stroke-width: 2; }
    .ai-component { fill: #e8f8f5; stroke: #16a085; stroke-width: 2; }
    .integration { fill: #fff5e6; stroke: #e67e22; stroke-width: 2; }
    .database { fill: #f5eef8; stroke: #8e44ad; stroke-width: 2; }
    .user { fill: #f2f4f4; stroke: #2c3e50; stroke-width: 2; }
    .connector { fill: none; stroke: #7f8c8d; stroke-width: 1.5; }
    .connector-bold { fill: none; stroke: #34495e; stroke-width: 2; }
    .data-flow { fill: none; stroke: #e74c3c; stroke-width: 2; stroke-dasharray: 5,5; }
    .label { font-family: Arial, sans-serif; font-size: 14px; fill: #2c3e50; }
    .title { font-family: Arial, sans-serif; font-size: 20px; font-weight: bold; fill: #2c3e50; }
    .small-label { font-family: Arial, sans-serif; font-size: 12px; fill: #7f8c8d; }
    .component-title { font-family: Arial, sans-serif; font-size: 14px; font-weight: bold; fill: #2c3e50; }
    .flow-label { font-family: Arial, sans-serif; font-size: 12px; fill: #e74c3c; font-style: italic; }
  </style>

  <!-- Title -->
  <text x="500" y="30" text-anchor="middle" class="title">BoaServer MVP - 24-Hour Implementation Architecture</text>

  <!-- User -->
  <rect x="50" y="100" width="120" height="80" rx="10" class="user" />
  <text x="110" y="125" text-anchor="middle" class="component-title">Engineer</text>
  <text x="110" y="145" text-anchor="middle" class="small-label">Oncall Support</text>
  <text x="110" y="165" text-anchor="middle" class="small-label">Issue Resolution</text>

  <!-- Frontend -->
  <rect x="250" y="80" width="180" height="120" rx="10" class="component" />
  <text x="340" y="105" text-anchor="middle" class="component-title">React Frontend</text>
  <text x="340" y="130" text-anchor="middle" class="small-label">Chat Interface</text>
  <text x="340" y="150" text-anchor="middle" class="small-label">Ticket Submission</text>
  <text x="340" y="170" text-anchor="middle" class="small-label">Code Viewer</text>

  <!-- Backend API -->
  <rect x="520" y="80" width="180" height="120" rx="10" class="component" />
  <text x="610" y="105" text-anchor="middle" class="component-title">FastAPI Backend</text>
  <text x="610" y="130" text-anchor="middle" class="small-label">Chat Endpoints</text>
  <text x="610" y="150" text-anchor="middle" class="small-label">Context Builder</text>
  <text x="610" y="170" text-anchor="middle" class="small-label">Ticket Parser</text>

  <!-- MCP Server -->
  <rect x="520" y="280" width="180" height="120" rx="10" class="integration" />
  <text x="610" y="305" text-anchor="middle" class="component-title">MCP Server</text>
  <text x="610" y="330" text-anchor="middle" class="small-label">Repository Access</text>
  <text x="610" y="350" text-anchor="middle" class="small-label">Code Search</text>
  <text x="610" y="370" text-anchor="middle" class="small-label">File Content API</text>

  <!-- File System -->
  <rect x="520" y="480" width="180" height="80" rx="10" class="database" />
  <text x="610" y="505" text-anchor="middle" class="component-title">Repository Files</text>
  <text x="610" y="525" text-anchor="middle" class="small-label">Cloned GitHub Repos</text>
  <text x="610" y="545" text-anchor="middle" class="small-label">Documentation</text>
  
  <!-- Google Gemini -->
  <rect x="780" y="80" width="180" height="120" rx="10" class="ai-component" />
  <text x="870" y="105" text-anchor="middle" class="component-title">Google Gemini Pro</text>
  <text x="870" y="130" text-anchor="middle" class="small-label">Text Generation</text>
  <text x="870" y="150" text-anchor="middle" class="small-label">Code Analysis</text>
  <text x="870" y="170" text-anchor="middle" class="small-label">Context Processing</text>

  <!-- Connections -->
  <!-- User to Frontend -->
  <path d="M 170 140 L 250 140" class="connector-bold" />
  
  <!-- Frontend to Backend -->
  <path d="M 430 140 L 520 140" class="connector-bold" />
  
  <!-- Backend to Gemini -->
  <path d="M 700 140 L 780 140" class="connector-bold" />
  
  <!-- Backend to MCP -->
  <path d="M 610 200 L 610 280" class="connector-bold" />
  
  <!-- MCP to File System -->
  <path d="M 610 400 L 610 480" class="connector" />

  <!-- Ticket Flow -->
  <path d="M 110 180 C 110 250, 340 250, 340 200" class="data-flow" />
  <text x="160" y="240" class="flow-label">1. Submit Ticket</text>
  
  <!-- Code Flow -->
  <path d="M 610 400 C 650 450, 780 450, 780 200" class="data-flow" />
  <text x="680" y="430" class="flow-label">2. Retrieve Code</text>
  
  <!-- LLM Flow -->
  <path d="M 870 200 C 870 250, 500 300, 340 250" class="data-flow" />
  <text x="600" y="255" class="flow-label">3. AI Response</text>

  <!-- Legend -->
  <rect x="50" y="550" width="15" height="15" class="user" />
  <text x="70" y="562" class="small-label">User</text>
  
  <rect x="150" y="550" width="15" height="15" class="component" />
  <text x="170" y="562" class="small-label">Core Components</text>
  
  <rect x="300" y="550" width="15" height="15" class="ai-component" />
  <text x="320" y="562" class="small-label">AI Services</text>
  
  <rect x="450" y="550" width="15" height="15" class="integration" />
  <text x="470" y="562" class="small-label">Integrations</text>
  
  <rect x="600" y="550" width="15" height="15" class="database" />
  <text x="620" y="562" class="small-label">Data Storage</text>
  
  <line x1="750" y1="550" x2="770" y2="550" class="connector-bold" />
  <text x="790" y="555" class="small-label">Data Flow</text>
  
  <line x1="750" y1="570" x2="770" y2="570" class="data-flow" />
  <text x="790" y="575" class="small-label">Workflow Steps</text>
</svg>